<svg xmlns="http://www.w3.org/2000/svg" viewBox="0 0 467 535"><path fill="#7c9cd3" d="M174.282 16.206c-5.486 2.649-4.922 12.167 1.416 23.901 4.27 7.907 4.115 9.21-2.109 17.665-7.601 10.325-15.923 14.644-28.089 14.579-13.061-.07-18.731-5.02-21.065-18.385-2.77-15.869-9.626-21.67-18.537-15.683-7.093 4.765-4.615 14.169 5.752 21.828 13.402 9.901 24.103 33.651 29.061 64.5l2.677 16.656-2.075 1.617c-1.142.889-2.886 2.096-3.877 2.682-1.731 1.025-1.732 1.236-.013 5.5.983 2.439 2.406 8.259 3.162 12.934 1.603 9.909 1.85 10.192 14.415 16.488 44.882 22.488 109.118 22.488 154 0 12.565-6.296 12.812-6.579 14.415-16.488.756-4.675 2.179-10.495 3.162-12.934 1.719-4.264 1.718-4.475-.013-5.5-.991-.586-2.735-1.793-3.877-2.682l-2.075-1.617 2.677-16.656c4.958-30.849 15.659-54.599 29.061-64.5 10.367-7.659 12.845-17.063 5.752-21.828-4.866-3.27-8.618-2.967-12.602 1.017-3.315 3.315-4.429 6.289-6.362 16.98-1.996 11.042-8.474 16.096-20.638 16.102-12.214.006-20.503-4.305-28.089-14.61-6.231-8.464-6.382-9.753-2.081-17.717 8.676-16.062 6.102-26.685-5.99-24.723-8.161 1.325-10.911 7.699-9.832 22.784l.695 9.708-4.178 4.533c-19.274 20.91-54.758 20.93-74.012.041l-4.14-4.492.69-10.304c.803-11.992-.202-16.279-4.706-20.069-3.247-2.732-8.514-3.287-12.575-1.327M175 20c-3.43 3.43-2.019 11.46 3.13 17.808 1.55 1.913 1.952 2.113 1.387.692-2.284-5.744-1.847-13.546.92-16.434C184.372 17.959 179.06 15.94 175 20m104.108.75c-2.355 1.95-4.814 11.973-3.667 14.947.544 1.411 1.148.716 2.778-3.197 1.146-2.75 3.365-6.661 4.932-8.691 1.567-2.031 2.849-3.943 2.849-4.25 0-1.28-4.938-.427-6.892 1.191m69.648 20.005C345.735 42.628 343 47.534 343 51.081c0 2.041.355 1.864 3.395-1.687 1.866-2.181 4.996-4.828 6.954-5.882 2.722-1.467 3.306-2.222 2.483-3.215-1.448-1.744-3.768-1.594-7.076.458m-243.089 1.67c-1.977 5.152.181 9.173 7.833 14.597 1.852 1.313 1.843 1.235-.125-1.052-2.714-3.154-4.427-6.467-5.882-11.377-.877-2.957-1.321-3.484-1.826-2.168m160.388 17.018c-9.84 10.153-29.062 14.663-47.055 11.04-1.375-.277-.025.729 3 2.235 14.873 7.405 39.647.534 46.607-12.925 2.172-4.201 1.297-4.32-2.552-.35M194.457 98.5c-.16.55-.552 6.4-.87 13-.653 13.514-3.145 27.353-6.99 38.807-1.428 4.254-2.597 7.951-2.597 8.214 0 .263 4.718.479 10.485.479h10.484l-.579-5.75c-.773-7.667.636-11.25 4.425-11.25 3.715 0 5.185 3.132 5.185 11.047V159l20.75.002 20.75.001v-7.624c0-9.208 2.199-12.063 6.566-8.527 2.086 1.689 2.345 2.714 2.288 9.027l-.066 7.121h21.641l-1.82-4.25c-2.411-5.632-6.537-23.265-9.068-38.75-1.124-6.875-2.267-13.85-2.541-15.5l-.497-3h-26.618l-1.215 15c-1.309 16.153-3.656 28.455-7.252 38l-2.26 6-1.442-3.5c-2.531-6.142-6.104-21.641-8.948-38.819L221.507 97.5h-13.38c-8.059 0-13.495.398-13.67 1m12.728 19.534c-3.03 8.033-2.511 12.966 1.363 12.966 3.056 0 4.01-3.254 2.527-8.616-1.684-6.087-2.775-7.307-3.89-4.35m49.796 2.038c-1.754 6.513-.996 10.428 2.019 10.428 3.084 0 3.782-3.636 1.953-10.169-1.514-5.406-2.568-5.475-3.972-.259m-120.194 63.754c-4.357 3.138-4.552 3.72-1.537 4.59 1.99.574-1.054 3.906-26.38 28.867-26.126 25.749-28.683 28.567-29.238 32.217-.334 2.2-1.901 11.313-3.482 20.25-1.58 8.938-2.801 16.25-2.711 16.25.089 0 2.815-3.224 6.057-7.165 3.241-3.941 6.052-6.691 6.245-6.112.193.58-2.369 14.215-5.695 30.3-7.303 35.327-7.228 33.566-1.172 27.601l4.874-4.801.61 6.339c.336 3.486 1.311 17.813 2.167 31.838.856 14.025 1.802 27.059 2.101 28.963l.545 3.464 3.557-6.738c1.956-3.706 3.651-6.614 3.767-6.463.115.151 6.646 15.911 14.511 35.024 7.866 19.113 14.606 34.75 14.977 34.75.371 0 1.734-2.26 3.028-5.023 1.294-2.762 2.7-4.9 3.124-4.75.874.309 20.975 18.816 53.358 49.128l21.994 20.587 4.029-8.651 4.03-8.651 7.977 11.154c4.387 6.134 8.202 11.155 8.477 11.157.275.002 4.089-4.965 8.475-11.038l7.974-11.041 3.998 8.064c2.199 4.435 4.271 8.064 4.605 8.064.334 0 8.407-7.312 17.94-16.25 37.48-35.138 56.533-52.743 57.087-52.746.319-.002 1.633 2.246 2.921 4.996 1.288 2.75 2.645 5 3.015 5 .37 0 5.542-11.812 11.494-26.25a16405.368 16405.368 0 0 1 14.255-34.498c3.864-9.279 4.15-9.329 8.157-1.431l2.88 5.679.559-3.5c.307-1.925 1.259-14.975 2.115-29 .856-14.025 1.831-28.352 2.167-31.838l.61-6.339 4.874 4.801c6.027 5.937 6.104 7.781-1.153-27.589-3.314-16.156-5.877-29.822-5.695-30.369.182-.547 2.782 1.988 5.777 5.633 2.995 3.644 5.602 6.171 5.795 5.615.192-.556-1.083-9.427-2.834-19.713l-3.184-18.701-28.666-28.215c-25.362-24.963-28.407-28.29-26.416-28.867 3.048-.882 2.823-1.469-1.79-4.66l-3.964-2.742-6.748 4.65c-43.375 29.886-125.126 29.882-168.508-.009-3.718-2.561-6.868-4.623-7-4.581-.132.042-1.911 1.279-3.953 2.75m5.713 76.426c-6.05 13.783-11.295 25.815-11.656 26.737-.474 1.211 3.622 6.718 14.75 19.834L161 324.98v26.912l7.5 11.914 7.5 11.914v28.56l12.226 11.818 12.226 11.818 5.941.292 5.94.292 2.616 8.5 2.616 8.5 2.406-3.25c3.137-4.239 3-4.299 7.415 3.249 4.946 8.455 4.573 8.437 9.085.427 4.405-7.821 4.594-7.93 7.47-4.273 2.587 3.288 2.695 3.174 5.541-5.816l2.322-7.337 6.097-.298 6.097-.297 12.015-11.703 12.014-11.702-.014-14.363-.013-14.363 7.5-11.838 7.5-11.839v-27.128l15.416-18.126c11.287-13.271 15.237-18.582 14.75-19.831-2.533-6.49-22.728-51.778-22.979-51.529-.172.17 3.126 11.856 7.328 25.969l7.641 25.661-7.389 8.693a11065.28 11065.28 0 0 0-15.078 17.789L295 322.69l-.002 13.405-.001 13.405-6.749 11.201c-5.56 9.23-7.746 11.913-12.421 15.25-7.089 5.06-5.469 5.221-23.827-2.377l-15.5-6.416-.289-7.434-.29-7.435 14.701-12.394c8.085-6.817 15.191-12.718 15.789-13.113.722-.475-.032-2.669-2.233-6.5-4.462-7.764-18.483-36.596-20.695-42.554-.974-2.625-1.93-4.615-2.123-4.421-.65.65 3.768 16.117 7.294 25.534 1.924 5.137 3.351 9.47 3.172 9.628-2.551 2.253-39.826 1.767-39.826-.519 0-.385 1.139-3.276 2.53-6.422 2.597-5.872 8.757-26.575 8.102-27.23-.201-.201-2.059 3.587-4.128 8.418-4.794 11.193-13.712 29.112-18.178 36.523-1.901 3.157-3.18 6.188-2.841 6.737.34.549 7.362 6.684 15.606 13.634l14.989 12.635-.29 7.443-.29 7.443-15.418 6.435c-18.29 7.633-16.617 7.481-23.993 2.184-4.959-3.561-6.985-6.041-12.504-15.302L169 349.396V322.69l-7.689-9.095a11323.517 11323.517 0 0 0-15.062-17.771l-7.374-8.675 7.624-25.68c4.194-14.123 7.484-25.813 7.313-25.978-.172-.164-5.262 10.978-11.312 24.761m23.278 1.073c-5.347 4.435-9.602 8.185-9.454 8.333.148.147 2.723-.385 5.723-1.183 8.624-2.295 9.683-2.046 12.741 2.993 3.285 5.412 2.962 5.382 9.704.906l5.462-3.627 9.607 1.209c5.284.666 9.773 1.043 9.976.84.203-.203-7.372-4.231-16.834-8.952l-17.203-8.582-9.722 8.063m105.222.73c-9.625 4.861-16.825 8.862-16 8.889.825.028 5.475-.437 10.333-1.033l8.834-1.083 5.401 3.586c6.723 4.463 6.398 4.494 9.665-.914 3.064-5.073 4.099-5.319 12.72-3.025 6.919 1.841 6.974 1.711 1.272-2.982a1630.756 1630.756 0 0 1-9.725-8.083l-5-4.194-17.5 8.839M70.543 301.931c-.317.512-.118 1.213.441 1.559.559.345 1.016-.074 1.016-.931 0-1.757-.6-2.015-1.457-.628m137.399 18.183-1.925 3.773 13.045 10.663c11.763 9.615 13.211 10.521 14.741 9.214.933-.797 6.754-5.599 12.935-10.671l11.237-9.221-1.921-3.765-1.92-3.766-5.317.757c-2.924.416-10.492.756-16.817.756-6.325 0-13.893-.34-16.817-.756l-5.317-.757-1.924 3.773M185 392.73v9.812l8.77 8.729 8.77 8.729h14.38l1.198 4c1.196 3.991 2.212 4.893 3.382 3 1.17-1.894 2.291-.983 6.14 4.991 2.123 3.295 4.085 5.992 4.36 5.992.275 0 2.237-2.697 4.36-5.992 3.849-5.974 4.97-6.885 6.14-4.991 1.17 1.893 2.186.991 3.382-3l1.198-4h14.46l9.23-9.269 9.23-9.269v-18.475l-4.15 3.007c-4.896 3.546-6.149 3.658-11.35 1.006-6.148-3.134-59.581-3.065-64.919.085-4.242 2.503-7.948 1.985-11.879-1.661L185 382.919v9.811" fill-rule="evenodd"/></svg>